<svg width="118" height="32" viewBox="0 0 118 32" fill="none" xmlns="http://www.w3.org/2000/svg">
<path d="M0.188534 9.03381C0.25138 9.09731 0.251381 9.22429 0.377072 9.35127C0.188536 9.09731 0.125691 8.97032 0.062845 8.90683C0.188536 9.22429 0.565607 9.85921 1.13122 11.0021C1.69683 12.0814 2.51382 13.6687 3.4565 15.51C4.39919 17.3513 5.5304 19.3195 6.72447 21.2243C7.85569 23.1291 9.04975 24.9068 10.1181 26.4306C11.1865 27.9545 12.0663 29.2243 12.6948 30.0497C13.3232 30.8751 13.6375 31.3195 13.826 31.5735C14.0145 31.8275 14.0774 31.8275 14.1402 31.8275C14.2031 31.8275 14.2659 31.8275 14.5802 31.4465C14.8944 31.1291 15.46 30.4306 16.5284 29.0973C17.5967 27.764 19.2307 25.8592 21.0532 23.5735C22.8758 21.2878 24.8868 18.6846 26.835 16.0814C30.6686 10.8751 34.0623 5.54175 35.8219 2.87508L36.5761 1.66873C37.5816 0.0814321 37.5816 0.0814323 37.5816 0.0179402C37.5188 -0.0455519 37.4559 0.01794 36.5761 0.906829L36.1362 1.35127C35.5077 1.98619 34.5022 3.00207 33.2453 4.27191C31.9884 5.54175 30.4172 7.12905 28.5319 9.03381C26.3323 11.256 23.7556 13.8592 21.4303 16.1449C19.7335 17.7957 18.2252 19.3195 17.1568 20.3989C16.5284 21.0338 16.0256 21.5417 15.6485 21.9227C14.5802 23.0021 14.5173 23.0656 14.5173 23.0656C14.5173 23.0656 14.5173 23.0656 14.3288 22.9386C14.1402 22.8116 13.8889 22.4941 13.3232 21.9227C13.009 21.6052 12.6319 21.2243 12.192 20.7798C11.0608 19.5735 9.42682 17.9862 7.79284 16.3354C6.66162 15.1925 5.46756 14.0497 4.46203 12.9703C3.39366 11.9544 2.51382 11.0021 1.82252 10.3671L0.251383 8.84334C1.42344e-06 8.58937 -0.062846 8.52588 0.062845 8.90683C0.062845 8.90683 0.062844 8.90683 0.12569 8.97032L0.188534 9.03381ZM37.2674 0.0179402L37.2045 0.0814322C37.2674 0.0179401 37.2674 0.0179402 37.2674 0.0179402ZM0.062845 8.90683C-4.9633e-07 8.90683 -1.46089e-06 8.90683 0.12569 8.97032L0.062845 8.90683Z" fill="white"/>
<path d="M11.0608 6.30367C11.6893 5.60526 12.6319 5.2243 13.6375 5.2243C14.643 5.2243 15.5228 5.66875 16.2141 6.30367C16.8426 7.00208 17.2825 7.95446 17.2825 8.97034C17.2825 9.98621 16.9054 10.9386 16.2141 11.637C15.5228 12.3354 14.643 12.7164 13.6375 12.7164C12.6319 12.7164 11.7521 12.2719 11.0608 11.637C10.4324 10.9386 9.99243 9.98621 9.99243 8.97034C9.99243 7.95446 10.4324 7.00208 11.0608 6.30367Z" fill="white"/>
<path d="M51.2578 21V11.1973H53.0967L56.0771 15.832L59.0576 11.1973H60.8896V21H59.167V13.9727L56.0771 18.5938H56.0225L52.9531 14V21H51.2578ZM63.4121 21V11.1973H70.0088V12.7559H65.1211V21H63.4121ZM71.123 16.0166C71.123 14.7497 71.5605 13.7266 72.4355 12.9473C73.3151 12.1634 74.5114 11.7715 76.0244 11.7715V10.8486H77.7334V11.7715C79.2464 11.7715 80.4404 12.1634 81.3154 12.9473C82.195 13.7311 82.6348 14.7588 82.6348 16.0303C82.6348 17.3018 82.1973 18.334 81.3223 19.127C80.4473 19.9199 79.251 20.3164 77.7334 20.3164V21.376H76.0244V20.3164C74.5114 20.3164 73.3151 19.9199 72.4355 19.127C71.5605 18.3294 71.123 17.2926 71.123 16.0166ZM72.8867 16.0439C72.8867 16.9053 73.1647 17.5775 73.7207 18.0605C74.2812 18.5436 75.0492 18.7852 76.0244 18.7852V13.3164C75.0537 13.3164 74.2881 13.5579 73.7275 14.041C73.167 14.5241 72.8867 15.1917 72.8867 16.0439ZM77.7334 18.7852C78.7132 18.7852 79.4811 18.5459 80.0371 18.0674C80.5931 17.5843 80.8711 16.9098 80.8711 16.0439C80.8711 15.1917 80.5908 14.5241 80.0303 14.041C79.4743 13.5579 78.7087 13.3164 77.7334 13.3164V18.7852ZM84.1318 16.0986C84.1318 15.415 84.2594 14.7656 84.5146 14.1504C84.7699 13.5306 85.1208 12.9928 85.5674 12.5371C86.014 12.0768 86.5586 11.7122 87.2012 11.4434C87.8438 11.1699 88.5319 11.0332 89.2656 11.0332C90.0039 11.0332 90.6921 11.1676 91.3301 11.4365C91.9681 11.7008 92.5081 12.0609 92.9502 12.5166C93.3968 12.9723 93.7454 13.5101 93.9961 14.1299C94.2513 14.7497 94.3789 15.4059 94.3789 16.0986C94.3789 16.7822 94.2513 17.4339 93.9961 18.0537C93.7409 18.6735 93.39 19.2135 92.9434 19.6738C92.4967 20.1296 91.9499 20.4941 91.3027 20.7676C90.6602 21.0365 89.972 21.1709 89.2383 21.1709C88.2585 21.1709 87.3766 20.943 86.5928 20.4873C85.8089 20.027 85.2028 19.4118 84.7744 18.6416C84.346 17.8714 84.1318 17.0238 84.1318 16.0986ZM85.9365 16.0986C85.9365 16.7321 86.0755 17.3154 86.3535 17.8486C86.6361 18.3773 87.0326 18.7988 87.543 19.1133C88.0579 19.4277 88.6322 19.585 89.2656 19.585C89.8991 19.585 90.4688 19.43 90.9746 19.1201C91.485 18.8057 91.8792 18.3841 92.1572 17.8555C92.4352 17.3268 92.5742 16.7412 92.5742 16.0986C92.5742 15.4652 92.4329 14.8841 92.1504 14.3555C91.8678 13.8223 91.4691 13.3984 90.9541 13.084C90.4437 12.7695 89.8717 12.6123 89.2383 12.6123C88.6048 12.6123 88.0329 12.7695 87.5225 13.084C87.0166 13.3939 86.6247 13.8132 86.3467 14.3418C86.0732 14.8704 85.9365 15.4561 85.9365 16.0986ZM96.457 21V11.1973H98.2959L101.276 15.832L104.257 11.1973H106.089V21H104.366V13.9727L101.276 18.5938H101.222L98.1523 14V21H96.457ZM108.181 16.0986C108.181 15.4059 108.306 14.7497 108.557 14.1299C108.807 13.5101 109.151 12.9723 109.589 12.5166C110.026 12.0609 110.562 11.7008 111.195 11.4365C111.829 11.1676 112.508 11.0332 113.232 11.0332C114.076 11.0332 114.796 11.1654 115.393 11.4297C115.994 11.6895 116.552 12.0654 117.067 12.5576L115.967 13.8291C115.538 13.4372 115.105 13.1364 114.668 12.9268C114.23 12.7171 113.747 12.6123 113.219 12.6123C112.608 12.6123 112.054 12.7673 111.558 13.0771C111.061 13.387 110.674 13.8086 110.396 14.3418C110.122 14.8704 109.985 15.4561 109.985 16.0986C109.985 17.0693 110.293 17.8942 110.908 18.5732C111.523 19.2477 112.294 19.585 113.219 19.585C113.784 19.585 114.278 19.4801 114.702 19.2705C115.131 19.0609 115.575 18.7419 116.035 18.3135L117.143 19.4346C116.778 19.8128 116.416 20.1227 116.056 20.3643C115.7 20.6058 115.276 20.8018 114.784 20.9521C114.297 21.098 113.757 21.1709 113.164 21.1709C112.23 21.1709 111.38 20.9476 110.614 20.501C109.853 20.0544 109.256 19.4437 108.823 18.6689C108.395 17.8942 108.181 17.0374 108.181 16.0986Z" fill="white"/>
</svg>
