<svg width="20" height="20" viewBox="0 0 20 20" fill="none" xmlns="http://www.w3.org/2000/svg">
<path d="M17.14 10.936C17.176 10.636 17.2 10.324 17.2 9.99999C17.2 9.67599 17.176 9.36399 17.128 9.06399L19.156 7.47999C19.336 7.33599 19.384 7.07199 19.276 6.86799L17.356 3.54399C17.236 3.32799 16.984 3.25599 16.768 3.32799L14.38 4.28799C13.876 3.90399 13.348 3.59199 12.76 3.35199L12.4 0.807994C12.364 0.567994 12.16 0.399994 11.92 0.399994H8.08001C7.84001 0.399994 7.64802 0.567994 7.61202 0.807994L7.25202 3.35199C6.66401 3.59199 6.12401 3.91599 5.63202 4.28799L3.24401 3.32799C3.02801 3.24399 2.77602 3.32799 2.65602 3.54399L0.736015 6.86799C0.616015 7.08399 0.664015 7.33599 0.856015 7.47999L2.88402 9.06399C2.83602 9.36399 2.80001 9.68799 2.80001 9.99999C2.80001 10.312 2.82401 10.636 2.87201 10.936L0.844015 12.52C0.664015 12.664 0.616015 12.928 0.724015 13.132L2.64401 16.456C2.76401 16.672 3.01602 16.744 3.23201 16.672L5.62001 15.712C6.12401 16.096 6.65201 16.408 7.24001 16.648L7.60001 19.192C7.64802 19.432 7.84001 19.6 8.08001 19.6H11.92C12.16 19.6 12.364 19.432 12.388 19.192L12.748 16.648C13.336 16.408 13.876 16.084 14.368 15.712L16.756 16.672C16.972 16.756 17.224 16.672 17.344 16.456L19.264 13.132C19.384 12.916 19.336 12.664 19.144 12.52L17.14 10.936ZM10 13.6C8.02001 13.6 6.40001 11.98 6.40001 9.99999C6.40001 8.01999 8.02001 6.39999 10 6.39999C11.98 6.39999 13.6 8.01999 13.6 9.99999C13.6 11.98 11.98 13.6 10 13.6Z" fill="black" fill-opacity="0.5"/>
</svg>
